<svg xmlns="http://www.w3.org/2000/svg" version="1.1" xmlns:xlink="http://www.w3.org/1999/xlink" xmlns:svgjs="http://svgjs.dev/svgjs" width="2000" height="338" viewBox="0 0 2000 338"><g transform="matrix(1,0,0,1,-1.2121212121212466,0.13786907464165665)"><svg viewBox="0 0 396 67" data-background-color="#ffffff" preserveAspectRatio="xMidYMid meet" height="338" width="2000" xmlns="http://www.w3.org/2000/svg" xmlns:xlink="http://www.w3.org/1999/xlink"><g id="tight-bounds" transform="matrix(1,0,0,1,0.2400000000000091,-0.02732907692600861)"><svg viewBox="0 0 395.52 67.05465815385202" height="67.05465815385202" width="395.52"><g><svg viewBox="0 0 395.52 67.05465815385202" height="67.05465815385202" width="395.52"><g transform="matrix(1,0,0,1,0,41.44246883854871)"><svg viewBox="0 0 395.52 25.6121893153033" height="25.6121893153033" width="395.52"><g id="textblocktransform"><svg viewBox="0 0 395.52 25.6121893153033" height="25.6121893153033" width="395.52" id="textblock"><g><svg viewBox="0 0 395.52 25.6121893153033" height="25.6121893153033" width="395.52"><g transform="matrix(1,0,0,1,0,0)"><svg width="395.52" viewBox="2 -33.25 520.75 34" height="25.6121893153033" data-palette-color="#cb8c2f"><g class="wordmark-text-0" data-fill-palette-color="primary" id="text-0"><path d="M2 0L9.35-32.5 14.6-32.5 21.95 0 18.45 0 16.75-7.5 7.2-7.5 5.5 0 2 0ZM16.05-10.5L11.95-28.6 7.85-10.5 16.05-10.5ZM44.45-26.25L44.45 0 42.95 0 41.65-3.2Q40.6-1.4 38.9-0.33 37.2 0.75 35.15 0.75L35.15 0.75Q27.95 0.75 27.95-6.25L27.95-6.25 27.95-11.25Q27.95-18.25 35.15-18.25L35.15-18.25 40.95-18.25 40.95-26.45Q40.95-28.25 39.8-29.25 38.65-30.25 36.4-30.25L36.4-30.25Q31.95-30.25 31.95-26.45L31.95-26.45 31.95-23.5 28.45-23.5 28.45-26.25Q28.45-29.6 30.42-31.43 32.4-33.25 36.4-33.25 40.4-33.25 42.42-31.43 44.45-29.6 44.45-26.25L44.45-26.25ZM40.95-7.1L40.95-15.25 35.15-15.25Q33.05-15.25 32.25-14.2 31.45-13.15 31.45-11.25L31.45-11.25 31.45-6.25Q31.45-4.35 32.25-3.3 33.05-2.25 35.15-2.25 37.25-2.25 39.05-3.88 40.85-5.5 40.95-7.1L40.95-7.1ZM57.45-22.85L57.45 0 53.95 0 53.95-32.5 55.45-32.5 56.9-28.8Q58.5-33.25 62-33.25L62-33.25Q67.95-33.25 67.95-26.75L67.95-26.75 67.95-23.5 64.6-23.5 64.6-26.95Q64.6-30.25 61.85-30.25L61.85-30.25Q60.2-30.25 58.82-28.35 57.45-26.45 57.45-22.85L57.45-22.85ZM81.99 0L81.99 0 73.94 0 73.94-32.5 81.99-32.5Q85.89-32.5 87.92-30.65 89.94-28.8 89.94-25.5L89.94-25.5 89.94-7Q89.94-3.65 87.94-1.83 85.94 0 81.99 0ZM86.44-7L86.44-7 86.44-25.5Q86.44-27.4 85.29-28.45 84.14-29.5 81.99-29.5L81.99-29.5 77.44-29.5 77.44-3 81.99-3Q86.44-3 86.44-7ZM116.14-32.5L108.79 0 103.54 0 96.19-32.5 99.69-32.5 106.14-3.85 112.64-32.5 116.14-32.5ZM138.64-26.25L138.64 0 137.14 0 135.84-3.2Q134.79-1.4 133.09-0.33 131.39 0.75 129.34 0.75L129.34 0.75Q122.14 0.75 122.14-6.25L122.14-6.25 122.14-11.25Q122.14-18.25 129.34-18.25L129.34-18.25 135.14-18.25 135.14-26.45Q135.14-28.25 133.99-29.25 132.84-30.25 130.59-30.25L130.59-30.25Q126.14-30.25 126.14-26.45L126.14-26.45 126.14-23.5 122.64-23.5 122.64-26.25Q122.64-29.6 124.61-31.43 126.59-33.25 130.59-33.25 134.59-33.25 136.61-31.43 138.64-29.6 138.64-26.25L138.64-26.25ZM135.14-7.1L135.14-15.25 129.34-15.25Q127.24-15.25 126.44-14.2 125.64-13.15 125.64-11.25L125.64-11.25 125.64-6.25Q125.64-4.35 126.44-3.3 127.24-2.25 129.34-2.25 131.44-2.25 133.24-3.88 135.04-5.5 135.14-7.1L135.14-7.1ZM151.64-22.85L151.64 0 148.14 0 148.14-32.5 149.64-32.5 151.09-28.8Q152.69-33.25 156.19-33.25L156.19-33.25Q162.14-33.25 162.14-26.75L162.14-26.75 162.14-23.5 158.79-23.5 158.79-26.95Q158.79-30.25 156.04-30.25L156.04-30.25Q154.39-30.25 153.01-28.35 151.64-26.45 151.64-22.85L151.64-22.85ZM171.68-12.5L171.68 0 168.18 0 168.18-32.5 171.68-32.5 171.68-18.7 180.38-32.5 184.28-32.5 175.43-18.5 184.88 0 181.03 0 173.33-15.15 171.68-12.5Z" fill="#cb8c2f" data-fill-palette-color="primary"></path><path d="M218.33-32.5L210.98 0 205.73 0 198.38-32.5 201.88-32.5 208.33-3.85 214.83-32.5 218.33-32.5ZM240.83-26.25L240.83 0 239.33 0 238.03-3.2Q236.98-1.4 235.28-0.33 233.58 0.75 231.53 0.75L231.53 0.75Q224.33 0.75 224.33-6.25L224.33-6.25 224.33-11.25Q224.33-18.25 231.53-18.25L231.53-18.25 237.33-18.25 237.33-26.45Q237.33-28.25 236.18-29.25 235.03-30.25 232.78-30.25L232.78-30.25Q228.33-30.25 228.33-26.45L228.33-26.45 228.33-23.5 224.83-23.5 224.83-26.25Q224.83-29.6 226.8-31.43 228.78-33.25 232.78-33.25 236.78-33.25 238.8-31.43 240.83-29.6 240.83-26.25L240.83-26.25ZM237.33-7.1L237.33-15.25 231.53-15.25Q229.43-15.25 228.63-14.2 227.83-13.15 227.83-11.25L227.83-11.25 227.83-6.25Q227.83-4.35 228.63-3.3 229.43-2.25 231.53-2.25 233.63-2.25 235.43-3.88 237.23-5.5 237.33-7.1L237.33-7.1ZM262.97 0L250.32 0 250.32-32.5 253.82-32.5 253.82-3 262.97-3 262.97 0ZM281.62 0L268.97 0 268.97-32.5 272.47-32.5 272.47-3 281.62-3 281.62 0ZM299.87-6.25L299.87-6.25 299.87-9 303.37-9 303.37-6.25Q303.37-2.9 301.32-1.07 299.27 0.75 295.17 0.75 291.07 0.75 288.97-1.07 286.87-2.9 286.87-6.25L286.87-6.25 286.87-26.25Q286.87-29.6 288.92-31.43 290.97-33.25 295.07-33.25 299.17-33.25 301.27-31.43 303.37-29.6 303.37-26.25L303.37-26.25 303.37-15.25 290.37-15.25 290.37-6.25Q290.37-2.25 295.12-2.25 299.87-2.25 299.87-6.25ZM290.37-26.25L290.37-26.25 290.37-18.25 299.87-18.25 299.87-26.25Q299.87-30.25 295.12-30.25 290.37-30.25 290.37-26.25ZM321.17-9.2L321.17 0 317.67 0 317.67-9.2Q310.87-9.95 310.87-16.1L310.87-16.1 310.87-32.5 314.37-32.5 314.37-16.1Q314.37-12.1 319.37-12.1 324.37-12.1 324.37-16.1L324.37-16.1 324.37-32.5 327.87-32.5 327.87-16.1Q327.87-9.95 321.17-9.2L321.17-9.2Z" fill="#ac5633" data-fill-palette-color="accent"></path><path d="M348.87-3L351.37-3 351.37 0 342.87 0 342.87-3 345.37-3 345.37-29.5 342.87-29.5 342.87-32.5 351.37-32.5 351.37-29.5 348.87-29.5 348.87-3ZM363.37-25.25L363.37 0 359.87 0 359.87-32.5 361.37-32.5 362.62-29.25Q365.02-33.25 369.27-33.25L369.27-33.25Q376.62-33.25 376.62-26.25L376.62-26.25 376.62 0 373.12 0 373.12-26.25Q373.12-28.15 372.29-29.2 371.46-30.25 369.27-30.25 367.07-30.25 365.21-28.55 363.37-26.85 363.37-25.25L363.37-25.25ZM402.01-6.25L402.01-6.25Q402.01 0.75 393.56 0.75 385.11 0.75 385.11-6.25L385.11-6.25 385.11-10.5 388.61-10.5 388.61-6.05Q388.61-4.25 389.86-3.25 391.11-2.25 393.56-2.25 396.01-2.25 397.26-3.25 398.51-4.25 398.51-5.98 398.51-7.7 398.14-8.72 397.76-9.75 396.61-10.9L396.61-10.9 387.81-19.5Q386.26-21.05 385.69-22.53 385.11-24 385.11-26.25L385.11-26.25Q385.11-29.6 387.19-31.43 389.26-33.25 393.46-33.25L393.46-33.25Q401.51-33.25 401.51-26.25L401.51-26.25 401.51-22 398.01-22 398.01-26.45Q398.01-28.25 396.84-29.25 395.66-30.25 393.31-30.25 390.96-30.25 389.79-29.25 388.61-28.25 388.61-26.5 388.61-24.75 388.96-23.75 389.31-22.75 390.51-21.65L390.51-21.65 399.46-13.05Q400.91-11.45 401.46-9.98 402.01-8.5 402.01-6.25ZM410.26-5.75L410.26-32.5 421.26-32.5 421.26-29.5 413.76-29.5 413.76-5.55Q413.76-4.15 414.49-3.2 415.21-2.25 416.54-2.25 417.86-2.25 418.56-3.18 419.26-4.1 419.26-5.55L419.26-5.55 419.26-11.5 422.76-11.5 422.76-5.75Q422.76-2.6 421.09-0.93 419.41 0.75 416.56 0.75 413.71 0.75 411.99-0.93 410.26-2.6 410.26-5.75L410.26-5.75ZM433.26-32.5L433.26 0 429.76 0 429.76-32.5 433.26-32.5ZM442.51-5.75L442.51-32.5 453.51-32.5 453.51-29.5 446.01-29.5 446.01-5.55Q446.01-4.15 446.73-3.2 447.46-2.25 448.78-2.25 450.11-2.25 450.81-3.18 451.51-4.1 451.51-5.55L451.51-5.55 451.51-11.5 455.01-11.5 455.01-5.75Q455.01-2.6 453.33-0.93 451.66 0.75 448.81 0.75 445.96 0.75 444.23-0.93 442.51-2.6 442.51-5.75L442.51-5.75ZM461.5-6.25L461.5-6.25 461.5-32.5 465-32.5 465-6.25Q465-4.35 465.83-3.3 466.65-2.25 468.85-2.25 471.05-2.25 472.9-3.95 474.75-5.65 474.75-7.25L474.75-7.25 474.75-32.5 478.25-32.5 478.25 0 476.75 0 475.45-3.2Q474.35-1.4 472.63-0.33 470.9 0.75 468.85 0.75L468.85 0.75Q461.5 0.75 461.5-6.25ZM487.5-5.75L487.5-32.5 498.5-32.5 498.5-29.5 491-29.5 491-5.55Q491-4.15 491.73-3.2 492.45-2.25 493.78-2.25 495.1-2.25 495.8-3.18 496.5-4.1 496.5-5.55L496.5-5.55 496.5-11.5 500-11.5 500-5.75Q500-2.6 498.33-0.93 496.65 0.75 493.8 0.75 490.95 0.75 489.23-0.93 487.5-2.6 487.5-5.75L487.5-5.75ZM519.25-6.25L519.25-6.25 519.25-9 522.75-9 522.75-6.25Q522.75-2.9 520.7-1.07 518.65 0.75 514.55 0.75 510.45 0.75 508.35-1.07 506.25-2.9 506.25-6.25L506.25-6.25 506.25-26.25Q506.25-29.6 508.3-31.43 510.35-33.25 514.45-33.25 518.55-33.25 520.65-31.43 522.75-29.6 522.75-26.25L522.75-26.25 522.75-15.25 509.75-15.25 509.75-6.25Q509.75-2.25 514.5-2.25 519.25-2.25 519.25-6.25ZM509.75-26.25L509.75-26.25 509.75-18.25 519.25-18.25 519.25-26.25Q519.25-30.25 514.5-30.25 509.75-30.25 509.75-26.25Z" fill="#cb8c2f" data-fill-palette-color="primary"></path></g></svg></g></svg></g></svg></g></svg></g><g transform="matrix(1,0,0,1,141.90678261032636,0)"><svg viewBox="0 0 111.70643477934726 35.39604563374917" height="35.39604563374917" width="111.70643477934726"><g><svg xmlns="http://www.w3.org/2000/svg" xmlns:xlink="http://www.w3.org/1999/xlink" version="1.1" x="0" y="0" viewBox="5 35.741 90 28.518" enable-background="new 0 0 100 100" xml:space="preserve" height="35.39604563374917" width="111.70643477934726" class="icon-icon-0" data-fill-palette-color="accent" id="icon-0"><polygon fill="#ac5633" points="5,60.177 6.895,62.207 29.894,55.44 33.902,61.624 29.321,64.259 37.567,64.259 39.399,57.271   51.082,57.157 52.914,62.083 49.134,64.259 55.434,64.259 58.526,55.44 68.948,54.866 85.211,59.563 91.281,59.563 95,55.325   90.364,57.387 86.013,56.471 69.177,45.362 49.478,35.741 31.153,42.612 24.167,47.423 22.335,47.309 17.295,40.437 18.068,45.402   14.318,41.696 17.066,50.744 " data-fill-palette-color="accent"></polygon></svg></g></svg></g><g></g></svg></g><defs></defs></svg><rect width="395.52" height="67.05465815385202" fill="none" stroke="none" visibility="hidden"></rect></g></svg></g></svg>